# xmcd
#
# Track frame offsets:
#	150
#	9965
#	34326
#	62140
#	73342
#	100461
#	107198
#	122891
#	144080
#	166594
#	184893
#	206994
#	214239
#	240412
#	260244
#	276516
#
# Disc length: 3984 seconds
#
# Revision: 2
# Processed by: cddbd v1.5.2PL0 Copyright (c) Steve Scherf et al.
# Submitted via: audiograbber 1.83.01
#
DISCID=fb0f8e10
DTITLE=Robin Mark - East Of The River
DYEAR=2007
DGENRE=Praise
TTITLE0=Some Place East Of The River
TTITLE1=Heaven's Gate
TTITLE2=Fortress
TTITLE3=Arise And Shine
TTITLE4=He Shall Reign
TTITLE5=Tripping Up The Stairs Jig
TTITLE6=I Have Been Crucified With Christ
TTITLE7=Lost And Found
TTITLE8=Shepherd
TTITLE9=I Am Persuaded
TTITLE10=At The Dawning
TTITLE11=Mary Lee Jig
TTITLE12=Highly Exalted
TTITLE13=O Amazing
TTITLE14=Central Station
TTITLE15=God Arise
EXTD=
EXTT0=
EXTT1=
EXTT2=
EXTT3=
EXTT4=
EXTT5=
EXTT6=
EXTT7=
EXTT8=
EXTT9=
EXTT10=
EXTT11=
EXTT12=
EXTT13=
EXTT14=
EXTT15=
PLAYORDER=
